<svg id="visual" viewBox="0 0 900 600" preserveAspectRatio="none" xmlns="http://www.w3.org/2000/svg" xmlns:xlink="http://www.w3.org/1999/xlink" version="1.1"><path d="M0 175L82 175L82 151L164 151L164 187L245 187L245 103L327 103L327 103L409 103L409 187L491 187L491 253L573 253L573 97L655 97L655 145L736 145L736 271L818 271L818 211L900 211L900 133L900 0L900 0L818 0L818 0L736 0L736 0L655 0L655 0L573 0L573 0L491 0L491 0L409 0L409 0L327 0L327 0L245 0L245 0L164 0L164 0L82 0L82 0L0 0Z" fill="#715df2"></path><path d="M0 349L82 349L82 307L164 307L164 277L245 277L245 385L327 385L327 349L409 349L409 361L491 361L491 421L573 421L573 295L655 295L655 301L736 301L736 451L818 451L818 331L900 331L900 391L900 131L900 209L818 209L818 269L736 269L736 143L655 143L655 95L573 95L573 251L491 251L491 185L409 185L409 101L327 101L327 101L245 101L245 185L164 185L164 149L82 149L82 173L0 173Z" fill="#a446cf"></path><path d="M0 415L82 415L82 373L164 373L164 373L245 373L245 463L327 463L327 385L409 385L409 403L491 403L491 463L573 463L573 379L655 379L655 367L736 367L736 487L818 487L818 409L900 409L900 463L900 389L900 329L818 329L818 449L736 449L736 299L655 299L655 293L573 293L573 419L491 419L491 359L409 359L409 347L327 347L327 383L245 383L245 275L164 275L164 305L82 305L82 347L0 347Z" fill="#bd31ab"></path><path d="M0 463L82 463L82 499L164 499L164 481L245 481L245 529L327 529L327 469L409 469L409 475L491 475L491 541L573 541L573 439L655 439L655 463L736 463L736 541L818 541L818 493L900 493L900 505L900 461L900 407L818 407L818 485L736 485L736 365L655 365L655 377L573 377L573 461L491 461L491 401L409 401L409 383L327 383L327 461L245 461L245 371L164 371L164 371L82 371L82 413L0 413Z" fill="#c72288"></path><path d="M0 601L82 601L82 601L164 601L164 601L245 601L245 601L327 601L327 601L409 601L409 601L491 601L491 601L573 601L573 601L655 601L655 601L736 601L736 601L818 601L818 601L900 601L900 601L900 503L900 491L818 491L818 539L736 539L736 461L655 461L655 437L573 437L573 539L491 539L491 473L409 473L409 467L327 467L327 527L245 527L245 479L164 479L164 497L82 497L82 461L0 461Z" fill="#c62368"></path></svg>